<mxfile host="app.diagrams.net" modified="2024-05-15T03:56:58.088Z" agent="Mozilla/5.0 (Windows NT 10.0; Win64; x64) AppleWebKit/537.36 (KHTML, like Gecko) Chrome/124.0.0.0 Safari/537.36" version="24.2.5" etag="kolAk8k7v2GjY_8XsVW1" type="github">
  <diagram name="第 1 页" id="y1bqEP2zBwvl55Bvj2K7">
    <mxGraphModel>
      <root>
        <mxCell id="0" />
        <mxCell id="1" parent="0" />
      </root>
    </mxGraphModel>
  </diagram>
</mxfile>
